<?xml version="1.0" encoding="iso-8859-1"?>
<!-- Generator: Adobe Illustrator 19.0.0, SVG Export Plug-In . SVG Version: 6.00 Build 0)  -->
<svg xmlns="http://www.w3.org/2000/svg" xmlns:xlink="http://www.w3.org/1999/xlink" version="1.1" id="Layer_1" x="0px" y="0px" viewBox="0 0 512 512" style="enable-background:new 0 0 512 512;" xml:space="preserve" width="512px" height="512px">
<g>
	<g>
		<path d="M321.134,325.197v89.429H190.869v-89.429H44.716v123.505l0.649,1.516c0.743,1.733,8.13,17.37,38.345,32.478    C122.598,502.141,180.566,512,256,512s133.402-9.859,172.29-29.303c30.215-15.108,37.602-30.744,38.345-32.478l0.649-1.516    V325.197H321.134z M60.791,365.661h89.521v-16.075H60.791v-8.315h114.004v32.705H60.791V365.661z M451.212,444.979h-0.001    c-4.902,7.504-40.172,50.945-195.21,50.945c-48.942,0-116.887-4.58-162.633-26.401c-22.079-10.531-30.31-21.077-32.577-24.574    V390.05h114.004v40.651h162.414V390.05h114.004V444.979z M451.212,349.586h-0.001H361.69v16.075h89.521v8.315H337.208v-32.705    h114.004V349.586z" fill="#f8f8f8"/>
	</g>
</g>
<g>
	<g>
		<rect x="85.273" y="406.497" width="32.52" height="16.075" fill="#f8f8f8"/>
	</g>
</g>
<g>
	<g>
		<rect x="134.054" y="406.497" width="16.26" height="16.075" fill="#f8f8f8"/>
	</g>
</g>
<g>
	<g>
		<rect x="361.693" y="406.497" width="32.519" height="16.075" fill="#f8f8f8"/>
	</g>
</g>
<g>
	<g>
		<rect x="410.464" y="406.497" width="16.26" height="16.075" fill="#f8f8f8"/>
	</g>
</g>
<g>
	<g>
		<path d="M418.6,0H93.403C80.005,0,69.106,10.9,69.106,24.296v211.378c0,13.398,10.9,24.297,24.297,24.297h138.301v68.276    l68.276-68.276H418.6c13.398,0,24.297-10.9,24.297-24.297V24.296C442.897,10.9,431.998,0,418.6,0z M426.823,235.675    c0,4.533-3.689,8.223-8.223,8.223H293.321l-45.543,45.543v-45.543H93.403c-4.533,0-8.223-3.689-8.223-8.223V24.296    c0-4.533,3.689-8.222,8.223-8.222H418.6c4.533,0,8.223,3.688,8.223,8.222V235.675z" fill="#f8f8f8"/>
	</g>
</g>
<g>
	<g>
		<path d="M215.353,48.778h-48.78c-13.398,0-24.297,10.9-24.297,24.297v32.52c-0.001,13.398,10.899,24.297,24.296,24.297h48.78    c2.885,0,5.653-0.508,8.223-1.435v31.987c-2.755,3.774-17.08,18.414-73.262,18.414v16.075c31.705,0,55.908-4.433,71.938-13.177    c13.282-7.245,16.481-15.191,16.988-16.709l0.413-1.238V73.076C239.651,59.678,228.751,48.778,215.353,48.778z M223.575,89.336    v16.26c0,4.533-3.689,8.223-8.223,8.223h-48.78c-4.533,0-8.223-3.689-8.223-8.223v-32.52c0-4.533,3.689-8.223,8.223-8.223h48.78    c4.533,0,8.223,3.689,8.223,8.223V89.336z" fill="#f8f8f8"/>
	</g>
</g>
<g>
	<g>
		<polygon points="321.04,48.779 321.04,64.854 353.653,64.854 353.653,195.025 369.727,195.025 369.727,48.779   " fill="#f8f8f8"/>
	</g>
</g>
<g>
	<g>
		<polygon points="256.001,48.779 256.001,64.854 288.613,64.854 288.613,195.025 304.688,195.025 304.688,48.779   " fill="#f8f8f8"/>
	</g>
</g>
<g>
	<g>
		<polygon points="101.626,32.519 101.626,81.206 117.701,81.206 117.701,48.594 134.052,48.594 134.052,32.519   " fill="#f8f8f8"/>
	</g>
</g>
<g>
	<g>
		<rect x="101.529" y="97.563" width="16.26" height="16.075" fill="#f8f8f8"/>
	</g>
</g>
<g>
	<g>
		<rect x="101.529" y="211.382" width="16.26" height="16.075" fill="#f8f8f8"/>
	</g>
</g>
<g>
	<g>
		<rect x="394.207" y="211.382" width="16.26" height="16.075" fill="#f8f8f8"/>
	</g>
</g>
<g>
	<g>
		<rect x="394.207" y="178.858" width="16.26" height="16.075" fill="#f8f8f8"/>
	</g>
</g>
<g>
	<g>
		<rect x="361.693" y="211.382" width="16.26" height="16.075" fill="#f8f8f8"/>
	</g>
</g>
<g>
	<g>
		<rect x="394.207" y="32.519" width="16.26" height="16.075" fill="#f8f8f8"/>
	</g>
</g>
<g>
</g>
<g>
</g>
<g>
</g>
<g>
</g>
<g>
</g>
<g>
</g>
<g>
</g>
<g>
</g>
<g>
</g>
<g>
</g>
<g>
</g>
<g>
</g>
<g>
</g>
<g>
</g>
<g>
</g>
</svg>
