<?xml version="1.0" encoding="iso-8859-1"?>
<!-- Generator: Adobe Illustrator 19.0.0, SVG Export Plug-In . SVG Version: 6.00 Build 0)  -->
<svg version="1.1" id="Capa_1" xmlns="http://www.w3.org/2000/svg" xmlns:xlink="http://www.w3.org/1999/xlink" x="0px" y="0px"
	 viewBox="0 0 512 512" style="enable-background:new 0 0 512 512;" xml:space="preserve">
<path style="fill:#EEEEEE;" d="M455.111,71.111H56.889c-15.411,0-29.381,6.348-39.626,16.303l-0.111-0.105
	C6.575,97.64,0,112.049,0,128v64v128v64c0,15.951,6.575,30.36,17.151,40.691L128,320v0.418L17.151,424.9
	c10.255,10.017,24.271,15.989,39.738,15.989h398.222C486.528,440.889,512,415.417,512,384v-63.582v-128V128
	C512,96.583,486.528,71.111,455.111,71.111z"/>
<path style="fill:#CE1126;" d="M17.151,424.9c10.255,10.017,24.271,15.989,39.738,15.989h398.222
	C486.528,440.889,512,415.417,512,384v-63.582H128L17.151,424.9z"/>
<path style="fill:#007A3D;" d="M455.111,71.111H56.889c-15.466,0-29.483,6.391-39.738,16.407L128,192.418h384V128
	C512,96.583,486.528,71.111,455.111,71.111z"/>
<path style="fill:#141414;" d="M128,192L17.151,87.309C6.575,97.64,0,112.049,0,128v64v128v64c0,15.951,6.575,30.36,17.151,40.691
	L128,320V192z"/>
<g>
</g>
<g>
</g>
<g>
</g>
<g>
</g>
<g>
</g>
<g>
</g>
<g>
</g>
<g>
</g>
<g>
</g>
<g>
</g>
<g>
</g>
<g>
</g>
<g>
</g>
<g>
</g>
<g>
</g>
</svg>
