<?xml version="1.0" encoding="iso-8859-1"?>
<!-- Generator: Adobe Illustrator 17.1.0, SVG Export Plug-In . SVG Version: 6.00 Build 0)  -->
<!DOCTYPE svg PUBLIC "-//W3C//DTD SVG 1.1//EN" "http://www.w3.org/Graphics/SVG/1.1/DTD/svg11.dtd">
<svg xmlns="http://www.w3.org/2000/svg" xmlns:xlink="http://www.w3.org/1999/xlink" version="1.1" id="Capa_1" x="0px" y="0px" viewBox="0 0 357.984 357.984" style="enable-background:new 0 0 357.984 357.984;" xml:space="preserve" width="512px" height="512px">
<g>
	<path d="M274.736,0H83.248c-11.028,0-20,8.972-20,20v317.984c0,11.028,8.972,20,20,20h191.488c11.028,0,20-8.972,20-20V20   C294.736,8.972,285.764,0,274.736,0z M162.825,16.281h32.334c2.762,0,5,2.239,5,5s-2.238,5-5,5h-32.334c-2.761,0-5-2.239-5-5   S160.064,16.281,162.825,16.281z M203.074,330.996c0,7.168-5.832,13-13,13H167.91c-7.168,0-13-5.832-13-13v-15   c0-7.168,5.832-13,13-13h22.164c7.168,0,13,5.832,13,13V330.996z M270.995,286.281c0,2.75-2.25,5-5,5H91.989c-2.75,0-5-2.25-5-5   v-241c0-2.75,2.25-5,5-5h174.007c2.75,0,5,2.25,5,5V286.281z" fill="#f8f8f8"/>
	<path d="M190.074,312.996H167.91c-1.626,0-3,1.374-3,3v15c0,1.626,1.374,3,3,3h22.164c1.626,0,3-1.374,3-3v-15   C193.074,314.37,191.7,312.996,190.074,312.996z" fill="#f8f8f8"/>
	<path d="M228.735,130.607c-2.596,2.06-3.03,5.834-0.971,8.43c4.713,5.939,7.879,15.843,7.879,24.646   c0,8.884-3.225,18.862-8.023,24.831c-2.076,2.583-1.666,6.359,0.916,8.436c1.108,0.892,2.437,1.324,3.756,1.324   c1.755,0,3.494-0.766,4.68-2.24c6.583-8.187,10.672-20.583,10.672-32.351c0-11.658-4.016-23.96-10.479-32.105   C235.105,128.982,231.33,128.547,228.735,130.607z" fill="#f8f8f8"/>
	<path d="M210.792,140.806c-2.596,2.06-3.03,5.834-0.971,8.43c2.473,3.116,4.338,9.344,4.338,14.487   c0,5.187-1.899,11.459-4.418,14.59c-2.077,2.582-1.668,6.359,0.914,8.436c1.108,0.892,2.437,1.325,3.757,1.325   c1.755,0,3.493-0.766,4.679-2.239c4.883-6.069,7.068-15.479,7.068-22.112c0-6.573-2.145-15.908-6.938-21.947   C217.162,139.181,213.386,138.746,210.792,140.806z" fill="#f8f8f8"/>
	<path d="M234.717,89.264l-33.707,32.367v-8.268c0-6.639-4.105-11.276-9.984-11.276c-2.039,0-4.12,0.576-6.188,1.712l-40.582,22.313   c-3.177,1.746-8.735,3.014-13.218,3.014c-0.87,0-1.661-0.049-2.352-0.145l-1.752-0.244c-0.679-0.095-1.365-0.143-2.039-0.143   c-7.601,0-13.555,6.025-13.555,13.717v42.954c0,6.326,4.032,11.517,9.691,13.163l-22.466,21.573   c-3.983,3.825-4.112,10.156-0.287,14.139c1.963,2.045,4.587,3.074,7.214,3.074c2.491,0,4.986-0.925,6.925-2.787l33.42-32.092   l38.999,21.442c2.067,1.136,4.148,1.712,6.188,1.712c5.879,0,9.984-4.637,9.984-11.276v-64.856l47.56-45.669   c3.984-3.825,4.112-10.156,0.287-14.139C245.029,85.566,238.701,85.439,234.717,89.264z" fill="#f8f8f8"/>
</g>
<g>
</g>
<g>
</g>
<g>
</g>
<g>
</g>
<g>
</g>
<g>
</g>
<g>
</g>
<g>
</g>
<g>
</g>
<g>
</g>
<g>
</g>
<g>
</g>
<g>
</g>
<g>
</g>
<g>
</g>
</svg>
